<svg id="Layer_2" data-name="Layer 2" xmlns="http://www.w3.org/2000/svg" viewBox="0 0 827.55 443"><defs><style>.cls-1{fill:#fff;}.cls-2{fill:none;stroke:#fff;stroke-miterlimit:10;stroke-width:20px;}</style></defs><path class="cls-1" d="M708.86,535.14c-15.14,1.75-23.31-4.5-53.18,9,11.86-.1,11.54-2.81,43,3.27-24.1,36.45-29.87,33.54-60.55,88.36,14.73-2.86,28.64,5.73,88.36-78.54,17.58,9.82,44.19,33.13,37.64,76.09,13.91-1.64,41.78,1.49,45.41,0,2.39-25.46,9.82-95.73,40.5-207.82C828.73,432.45,776,460.68,708.86,535.14Zm67,29.66c-4.77-14.12-36.55-21.89-36.55-21.89l49.64-47.46S780.05,550.27,775.82,564.8Z" transform="translate(-564.27 -338.67)"/><path class="cls-1" d="M850,495.45h43.36s-11,65.46-7.36,76.1c8.59-4.3,58.91-76.1,58.91-76.1s-.81,1.05,34.77,0c-11.86,22.1-103.91,128.05-134.59,143.6C839,619,850,495.45,850,495.45Z" transform="translate(-564.27 -338.67)"/><path class="cls-1" d="M985,495.45h42.55s-47.87,130.91-54,138.69c-22.5-.82-27.82,0-45,0C939.18,619,985,495.45,985,495.45Z" transform="translate(-564.27 -338.67)"/><path class="cls-1" d="M1025.91,438.59c23.73,1.64,32.32,14.73,12.68,31.5-14,12-51.54,17.59-54.41-.41C981.71,454.14,1005.69,437.2,1025.91,438.59Z" transform="translate(-564.27 -338.67)"/><path class="cls-1" d="M1158.86,505.27c-9-15.67-92.83-51.5-126.41,49.91-20,60.55,40.91,114.14,110,49.91-2-9.41-5.73-11.86-11.86-24.14-20.46,16-77.17,27.87-61-24.13,13.91-44.63,59.73-32.32,66.68-19.64C1145.36,526.14,1153.08,518.72,1158.86,505.27Z" transform="translate(-564.27 -338.67)"/><path class="cls-1" d="M1244.36,493.62c-30.77-7.06-79.82,18.18-87.27,73.64-4.91,36.54,36.67,81.24,90,50.18C1303.27,584.71,1310.91,508.89,1244.36,493.62ZM1234.55,586c-19.1,22.91-51,18.71-32.19-34.91,10.91-31.09,28.86-42.23,39.6-38.05C1261.27,520.55,1246.09,572.15,1234.55,586Z" transform="translate(-564.27 -338.67)"/><ellipse class="cls-2" cx="413.77" cy="221.5" rx="403.77" ry="211.5"/></svg>