<?xml version="1.0" encoding="UTF-8"?>
<svg id="Full_Logo_Black" xmlns="http://www.w3.org/2000/svg" xmlns:xlink="http://www.w3.org/1999/xlink" viewBox="0 0 1000 1000">
  <defs>
    <style>
      .cls-1 {
        fill: none;
      }

      .cls-1, .cls-2 {
        stroke-width: 0px;
      }

      .cls-2 {
        fill: #fff;
        fill-rule: evenodd;
      }

      .cls-3 {
        clip-path: url(#clippath);
      }
    </style>
    <clipPath id="clippath">
      <rect class="cls-1" width="1000" height="1000"/>
    </clipPath>
  </defs>
  <g class="cls-3">
    <g>
      <polygon class="cls-2" points="149.41 833.19 148.43 834.74 147.44 836.29 146.32 839.67 145.75 843.33 146.04 846.99 146.88 850.8 148.43 854.45 150.54 857.84 153.5 861.07 155.47 862.9 157.72 864.46 159.84 865.72 162.23 866.7 164.48 867.41 166.88 867.98 169.27 868.11 171.67 868.11 174.2 867.69 176.59 867.13 178.99 866.42 181.38 865.3 183.78 863.89 186.17 862.34 188.42 860.51 190.54 858.4 193.64 854.88 196.03 851.64 197.58 848.4 198.7 844.74 199.41 841.5 199.69 838.4 199.55 835.31 198.98 832.35 198 829.67 196.59 826.99 194.76 824.46 192.51 822.06 190.39 820.24 188.28 818.68 186.03 817.42 183.78 816.43 181.38 815.73 178.99 815.31 176.59 815.31 174.06 815.44 177.58 809.53 174.2 806.29 154.77 826.57 171.38 842.48 175.61 838.12 163.78 826.86 166.6 824.32 169.55 822.35 172.65 821.22 175.61 820.65 178.71 820.8 181.67 821.78 184.62 823.34 187.44 825.58 190.11 828.54 191.1 830.23 191.94 831.78 192.51 833.47 192.93 835.16 193.07 836.85 193.07 838.54 192.93 840.37 192.37 842.06 190.96 845.72 188.56 849.39 185.32 853.19 181.8 856.28 178.28 858.82 174.62 860.37 172.93 860.94 171.1 861.22 169.27 861.36 167.58 861.22 165.89 860.94 164.2 860.51 162.51 859.81 160.96 858.96 157.86 856.57 155.89 854.32 154.34 852.2 153.22 849.81 152.65 847.56 152.37 845.16 152.65 842.76 153.36 840.37 154.48 838.12 149.41 833.19 149.41 833.19"/>
      <polygon class="cls-2" points="127.3 832.49 167.72 799.11 143.08 769.26 138.15 773.34 158.29 797.56 144.91 808.55 126.6 786.57 121.81 790.66 139.98 812.63 127.73 822.91 107.87 798.97 102.94 803.05 127.3 832.49 127.3 832.49"/>
      <polygon class="cls-2" points="94.77 792.35 138.85 763.76 135.05 757.99 98.02 782.07 127.02 745.6 123.22 739.69 78.16 751.23 115.19 727.29 111.53 721.52 67.46 749.96 72.95 758.41 118.29 747.01 89.14 783.62 94.77 792.35 94.77 792.35"/>
      <polygon class="cls-2" points="60.13 736.17 107.17 713.07 90.13 678.43 84.5 681.1 98.29 709.41 82.66 717.01 70.13 691.38 64.5 694.2 77.03 719.82 62.67 726.87 49.01 698.98 43.23 701.8 60.13 736.17 60.13 736.17"/>
      <polygon class="cls-2" points="37.88 688.84 87.17 670.82 73.79 634.49 67.88 636.6 78.72 666.17 62.38 672.23 52.53 645.33 46.61 647.58 56.33 674.34 41.4 679.83 30.7 650.68 24.64 652.94 37.88 688.84 37.88 688.84"/>
      <polygon class="cls-2" points="20.7 639.98 71.68 627.45 69.99 620.68 28.87 630.82 63.65 594.77 61.68 587.03 10.84 599.56 12.39 606.32 53.65 596.18 18.73 631.81 20.7 639.98 20.7 639.98"/>
      <polygon class="cls-2" points="18.31 544.92 14.64 545.91 11.41 547.32 10 548.3 8.73 549.29 7.6 550.56 6.76 551.82 5.21 554.92 4.37 558.58 4.08 562.53 4.37 567.17 5.21 571.11 6.48 574.5 8.31 577.45 10.42 579.85 12.96 581.67 15.91 582.95 19.15 583.51 22.67 583.37 25.49 582.66 27.88 581.54 29.86 579.99 31.41 577.88 32.25 576.47 32.81 574.92 33.52 571.68 34.93 557.03 35.77 552.95 36.33 551.4 37.18 550.13 38.16 549.01 39.29 548.16 40.56 547.6 42.25 547.32 44.5 547.32 46.33 547.74 48.02 548.72 49.43 550.27 50.7 552.25 51.68 554.5 52.39 556.9 52.95 559.57 53.23 562.81 52.95 565.76 52.24 568.3 51.26 570.55 49.71 572.38 47.74 573.79 45.49 574.92 42.67 575.62 43.65 582.24 46.61 581.67 49.01 580.97 50.84 580.13 52.67 578.86 54.22 577.45 55.76 575.62 57.03 573.51 58.02 571.54 58.86 569 59.29 566.05 59.29 562.66 59.01 559.14 58.16 554.64 56.75 550.56 55.06 547.17 52.81 544.5 51.68 543.37 50.27 542.39 48.87 541.54 47.46 540.98 45.77 540.56 44.22 540.42 40.56 540.42 38.02 540.98 35.77 541.83 33.8 543.09 31.97 544.64 30.56 546.47 29.43 548.58 28.73 551.12 28.31 553.79 26.61 570.27 26.05 572.67 25.63 573.65 24.93 574.5 24.08 575.2 23.09 575.76 20.84 576.47 18.73 576.61 16.9 576.19 15.21 575.48 13.8 574.21 12.53 572.67 11.55 570.83 10.84 568.44 10.28 565.9 10.14 563.09 10.28 560.55 10.98 558.3 11.97 556.33 13.24 554.64 14.93 553.23 16.9 552.25 19.29 551.68 18.31 544.92 18.31 544.92"/>
      <polygon class="cls-2" points="16.76 488.87 13.1 489.58 9.86 491.13 6.9 493.1 4.51 495.78 2.53 498.87 1.13 502.53 .28 506.34 0 510.56 .14 513.38 .56 516.06 1.27 518.59 2.11 520.84 3.24 522.95 4.65 525.06 6.2 526.75 7.89 528.45 9.86 529.86 11.97 531.12 14.22 532.25 16.76 533.09 19.43 533.79 22.25 534.22 25.35 534.5 28.45 534.5 31.55 534.36 34.36 534.08 37.18 533.38 39.71 532.67 42.11 531.68 44.36 530.56 46.33 529.15 48.16 527.75 49.85 526.05 51.26 524.22 52.53 522.25 53.51 520.13 54.36 517.89 54.92 515.49 55.2 512.96 55.2 510.28 54.78 505.91 53.65 501.83 51.82 498.17 50.7 496.62 49.43 495.07 48.02 493.66 46.47 492.39 42.81 490.42 38.73 488.87 34.08 487.89 34.22 494.79 37.46 495.63 40.42 496.76 42.95 498.17 44.92 499.86 46.61 501.83 47.74 504.09 48.58 506.62 48.87 509.44 48.58 513.52 47.6 516.9 46.9 518.45 46.05 520 44.92 521.26 43.65 522.39 42.25 523.52 40.7 524.36 37.04 525.91 32.81 526.75 27.88 527.18 23.23 527.04 19.01 526.19 15.35 524.93 12.25 522.95 10.98 521.83 9.86 520.56 8.73 519.15 8.03 517.6 7.32 515.91 6.76 514.22 6.48 512.39 6.34 510.42 6.48 507.6 6.9 505.07 7.74 502.67 9.01 500.7 10.56 499.01 12.39 497.6 14.5 496.48 16.9 495.78 16.76 488.87 16.76 488.87"/>
      <polygon class="cls-2" points="1.41 476.2 53.65 480.85 54.36 473.66 29.99 471.55 32.39 444.37 56.75 446.62 57.46 439.45 5.21 434.8 4.51 441.84 26.05 443.81 23.66 470.99 2.11 469.02 1.41 476.2 1.41 476.2"/>
      <path class="cls-2" d="m10.42,405.22l47.6,29.71,1.41-7.18-13.94-8.45,4.22-20.56,15.91-1.97,1.55-7.74-55.06,8.31-1.69,7.89h0Zm8.31-2.25l24.22-2.96-3.24,15.77-20.98-12.82h0Z"/>
      <path class="cls-2" d="m18.73,368.33l50.14,15.63,2.11-6.9-21.12-6.62,5.35-16.9.56-2.82v-2.96l-.56-2.67-1.13-2.53-1.69-2.4-2.11-1.97-2.54-1.69-2.96-1.27-3.1-.56-2.82-.14-2.82.56-2.67.99-2.39,1.41-1.97,1.97-1.55,2.39-1.27,2.67-.28.99-7.18,22.81h0Zm25.35.28l-17.33-5.35,4.37-13.8.84-2.25.99-1.83,1.27-1.55,1.27-.99,1.55-.7,1.69-.42,1.83.14,2.11.42,1.97.84,1.55.99,1.27,1.27.98,1.41.56,1.55.14,1.83-.14,1.97-.42,2.11-4.5,14.36h0Z"/>
      <polygon class="cls-2" points="41.54 302.7 97.03 308.62 100.41 301.72 61.68 261.44 58.02 268.76 91.82 301.72 45.06 295.66 41.54 302.7 41.54 302.7"/>
      <path class="cls-2" d="m74.92,239.47l34.08,44.5,3.94-6.19-10-12.82,10.98-17.74,15.77,3.66,4.08-6.62-54.5-11.55-4.37,6.76h0Zm8.59.99l23.66,5.63-8.45,13.66-15.21-19.29h0Z"/>
      <polygon class="cls-2" points="95.34 208.21 136.46 240.6 140.82 235.25 107.45 208.92 157.3 214.26 162.23 207.93 121.11 175.54 116.74 180.89 150.12 207.22 100.55 201.59 95.34 208.21 95.34 208.21"/>
      <polygon class="cls-2" points="142.94 150.75 188 180.61 193.78 175.54 173.78 135.12 211.66 159.48 217.29 154.55 192.65 106.25 186.73 111.46 207.86 149.91 170.68 125.97 164.9 131.04 184.48 170.89 148.71 145.4 142.94 150.75 142.94 150.75"/>
      <polygon class="cls-2" points="202.22 100.34 233.21 142.58 238.98 138.36 208 96.11 202.22 100.34 202.22 100.34"/>
      <polygon class="cls-2" points="260.38 80.2 257.99 77.24 256.72 75.97 255.32 74.85 252.36 73.3 250.81 72.74 249.26 72.45 245.88 72.45 242.22 73.02 238.42 74.43 234.33 76.68 231.09 79.07 228.42 81.61 226.59 84.42 225.32 87.52 224.62 90.62 224.76 93.72 225.6 96.96 227.29 100.05 228.98 102.31 230.95 104 233.21 105.13 235.74 105.69 237.43 105.83 239.12 105.83 242.36 105.13 256.3 100.34 258.41 99.77 260.24 99.35 261.93 99.21 263.48 99.49 264.75 99.92 266.02 100.62 267.14 101.6 267.99 102.87 268.98 104.84 269.4 106.82 269.26 108.79 268.41 110.76 267.14 112.73 265.46 114.56 263.48 116.25 261.37 117.8 258.41 119.35 255.74 120.34 253.2 120.76 250.67 120.76 248.41 120.05 246.16 118.93 244.33 117.24 242.5 115.13 236.73 118.65 238.56 121.18 240.25 123.01 241.8 124.42 243.63 125.4 245.74 126.39 247.99 126.95 250.39 127.38 252.64 127.38 255.17 126.95 258.13 126.11 261.09 124.84 264.19 123.15 267.99 120.34 271.09 117.52 273.48 114.56 275.03 111.46 275.88 108.23 276.02 106.68 276.02 104.98 275.17 101.75 273.62 98.65 272.07 96.53 270.38 94.85 268.41 93.44 266.3 92.59 264.04 92.03 261.65 91.89 259.12 92.17 256.44 92.87 240.67 98.23 238.28 98.79 236.16 98.37 235.18 97.94 234.19 97.38 232.64 95.41 231.8 93.72 231.38 91.89 231.38 90.06 231.8 88.23 232.64 86.4 234.05 84.71 235.74 83.16 237.99 81.61 240.39 80.2 242.78 79.35 245.18 78.93 247.29 79.07 249.4 79.49 251.37 80.48 253.06 81.89 254.61 83.86 260.38 80.2 260.38 80.2"/>
      <polygon class="cls-2" points="264.47 60.34 287.42 107.52 293.9 104.42 285.87 87.8 289.54 77.1 317.7 92.73 326.01 88.65 292.21 70.34 302.07 42.04 293.62 46.12 282.07 80.06 270.95 57.24 264.47 60.34 264.47 60.34"/>
      <polygon class="cls-2" points="312.21 37.95 324.32 71.61 325.16 73.72 326.43 75.83 327.98 77.67 329.67 79.35 331.64 80.76 333.9 82.03 336.15 82.88 338.54 83.3 341.08 83.44 343.61 83.16 346.43 82.6 349.24 81.75 353.61 79.92 357.13 77.52 358.68 76.11 359.95 74.71 361.07 73.16 362.06 71.47 362.76 69.78 363.33 68.09 363.89 64.43 363.75 60.77 362.91 57.24 350.94 24.01 344.32 26.4 355.72 58.37 355.87 58.93 356.43 61.19 356.85 63.44 356.71 65.69 356.15 67.81 355.16 69.92 353.75 71.75 352.06 73.3 349.95 74.71 347.56 75.69 344.6 76.54 341.92 76.68 339.39 76.4 336.99 75.55 334.88 74.15 333.05 72.31 331.5 69.92 330.24 67.1 318.83 35.56 312.21 37.95 312.21 37.95"/>
      <polygon class="cls-2" points="365.58 19.65 377.55 70.77 384.31 69.07 374.59 27.81 410.36 63.02 418.11 61.19 406 10.07 399.24 11.62 409.1 53.02 373.75 17.67 365.58 19.65 365.58 19.65"/>
      <path class="cls-2" d="m421.21,7.39l6.2,52.11,21.97-2.53,2.25-.42,2.11-.7,2.11-.85,1.83-.99,1.69-1.27,1.55-1.55,1.55-1.69,1.27-1.83.99-1.97.98-2.25.7-2.26.56-2.53.42-2.53.14-2.67v-2.82l-.28-2.96-.42-2.82-.7-2.67-.84-2.53-.99-2.4-1.13-2.25-1.27-1.97-1.55-1.83-1.69-1.55-2.39-1.83-2.54-1.41-2.53-.7-2.96-.7-2.82-.14h-2.53l-21.69,2.53h0Zm12.53,45.21l-4.65-40,12.53-1.41,3.66-.14,3.38.56,2.82,1.27,2.53,1.83,2.11,2.53,1.69,3.24,1.27,3.8.85,4.36.28,3.95-.14,3.66-.56,3.38-.85,2.82-.85,1.69-.98,1.55-1.13,1.27-1.13,1.27-1.41.99-1.41.7-1.41.56-1.55.28-15.07,1.83h0Z"/>
      <polygon class="cls-2" points="477.82 1.76 478.24 54.15 516.96 53.87 516.83 47.53 485.42 47.81 485.28 30.35 513.87 30.21 513.73 23.73 485.14 24.01 485 8.1 516.13 7.82 516.13 1.48 477.82 1.76 477.82 1.76"/>
      <polygon class="cls-2" points="551.89 3.87 544.57 55.84 582.87 61.33 583.72 54.99 552.6 50.63 554.98 33.31 583.29 37.39 584.14 31.05 555.84 27.11 558.09 11.2 588.93 15.56 589.78 9.23 551.89 3.87 551.89 3.87"/>
      <polygon class="cls-2" points="603.01 11.9 590.05 62.74 596.82 64.43 607.24 23.31 622.73 71.05 630.47 72.88 643.28 22.18 636.67 20.35 626.11 61.47 611.18 13.87 603.01 11.9 603.01 11.9"/>
      <polygon class="cls-2" points="677.93 34.29 658.92 83.16 665.54 85.83 684.68 36.97 677.93 34.29 677.93 34.29"/>
      <polygon class="cls-2" points="698.49 42.18 675.68 89.35 681.88 92.45 700.32 54.29 705.95 104 713.13 107.52 735.95 60.34 729.61 57.24 711.17 95.55 706.09 45.84 698.49 42.18 698.49 42.18"/>
      <polygon class="cls-2" points="749.33 67.95 721.59 112.45 727.78 116.25 740.31 96.11 762.14 109.63 765.52 104.28 743.69 90.76 752.01 77.1 776.93 92.59 780.31 87.1 749.33 67.95 749.33 67.95"/>
      <path class="cls-2" d="m808.47,106.53l-2.26-1.69-2.39-1.41-2.4-.99-2.39-.85-2.54-.56-2.39-.28h-2.54l-2.39.28-2.4.56-2.4.7-2.39.98-2.25,1.41-2.26,1.55-2.11,1.83-2.11,1.97-1.97,2.4-1.69,2.39-1.56,2.53-1.26,2.54-.98,2.53-.71,2.54-.56,2.53-.14,2.54.14,2.53.28,2.39.56,2.39.85,2.26,1.13,2.25,1.4,2.25,1.55,1.97,1.98,1.97,2.11,1.83,2.25,1.69,2.39,1.27,2.4,1.12,2.4.85,2.53.56,2.39.28h2.54l2.39-.28,2.4-.56,2.4-.7,2.39-1.12,2.26-1.27,2.25-1.55,2.26-1.83,1.97-2.11,1.98-2.4,1.82-2.4,1.55-2.53,1.13-2.53.98-2.54.71-2.53.56-2.53.14-2.4-.14-2.53-.28-2.39-.56-2.4-.85-2.4-1.13-2.25-1.4-2.11-1.69-2.11-1.84-1.83-2.11-1.83h0Zm-3.95,4.79l1.56,1.41,1.26,1.41,1.13,1.55,1,1.55.84,1.69.56,1.69.28,1.69.14,1.83-.14,3.8-.98,3.8-1.82,3.8-2.54,3.94-3.09,3.38-3.38,2.68-3.38,1.83-1.82.7-1.84.42-1.84.28-1.69.14-1.82-.14-1.84-.42-3.51-1.27-1.69-.84-1.55-1.27-1.56-1.27-1.4-1.41-1.13-1.55-.84-1.55-.85-1.69-.56-1.69-.28-1.69-.14-1.83.14-3.8,1.13-3.8,1.69-3.94,2.67-3.81,2.95-3.38,3.38-2.67,3.38-1.83,3.66-1.12,1.84-.28,1.69-.14,1.82.14,1.84.42,3.51,1.27,1.56.85,1.68,1.13h0Z"/>
      <path class="cls-2" d="m837.48,132.31l-36.89,37.32,5.06,5.07,15.92-16.06,12.82,12.82.98,1.13.84,1.27.56,1.27.29,1.41v1.97l-.56,1.84-1.69,2.25-3.09,3.38-2.26,2.53-1.42,1.83-1.82,2.25-.85,1.55,6.06,6.19.85-.85-.14-1.27v-1.13l.28-.85.43-.84,8.44-9.3,1.84-2.53.56-1.27.28-1.27.14-1.27-.14-1.27-.98-3.1,2.11.56,1.84.14h1.97l1.69-.28,1.69-.7,1.69-.85,1.69-1.27,1.55-1.41,1.69-1.97,1.26-2.11.85-1.97.42-2.25v-1.55l-.28-1.69-1.13-3.38-1.98-3.38-2.67-3.24-17.88-17.75h0Zm.84,9.43l12.68,12.54.14.28,1.69,1.97.84,1.27.43,1.12.13,1.41v1.41l-.42,1.27-.56,1.41-.84,1.41-1.27,1.41-1.4,1.26-1.56.85-1.55.56-1.69.14-1.55-.14-1.69-.56-1.55-.99-1.4-1.12-12.97-12.82,12.53-12.67h0Z"/>
      <polygon class="cls-2" points="876.63 172.16 835.52 204.55 839.74 210.04 874.38 182.72 848.75 221.59 853.26 227.22 897.06 211.59 862.41 238.77 866.63 244.12 907.76 211.73 901.55 203.84 857.48 219.48 882.98 180.33 876.63 172.16 876.63 172.16"/>
      <path class="cls-2" d="m923.82,237.08l-54.93,10.56,3.8,6.19,15.92-3.24,10.84,17.89-10.28,12.39,4.09,6.62,34.78-43.51-4.22-6.9h0Zm-4.51,7.33l-15.77,18.59-8.31-13.8,24.08-4.79h0Z"/>
      <polygon class="cls-2" points="940.43 264.96 934.79 267.64 942.41 283.69 900.86 303.69 903.95 310.17 945.5 290.17 953.25 306.22 959.02 303.41 940.43 264.96 940.43 264.96"/>
      <polygon class="cls-2" points="962.4 312.84 913.67 332.28 916.34 338.89 965.07 319.46 962.4 312.84 962.4 312.84"/>
      <polygon class="cls-2" points="968.46 379.6 971.69 377.9 974.51 375.51 976.62 372.69 978.32 369.6 979.3 366.08 979.72 362.27 979.44 358.19 978.59 354.11 977.61 351.43 976.48 349.04 975.21 346.78 973.66 344.81 971.97 343.12 970.15 341.43 968.17 340.16 966.06 339.04 963.8 338.19 961.42 337.49 958.87 337.21 956.2 336.92 953.52 337.06 950.71 337.34 947.61 337.91 944.65 338.75 941.7 339.88 939.02 341.01 936.62 342.28 934.37 343.68 932.26 345.37 930.42 347.06 928.88 348.89 927.47 350.86 926.35 352.83 925.51 354.95 924.8 357.2 924.38 359.6 924.38 361.85 924.38 364.38 924.8 366.92 925.51 369.45 927.19 373.68 929.31 377.2 930.57 378.75 931.98 380.16 933.53 381.42 935.22 382.55 938.88 384.24 940.71 384.8 942.83 385.23 947.19 385.65 951.98 385.23 950.01 378.61 946.63 378.75 943.52 378.47 940.71 377.76 938.17 376.78 936.06 375.23 934.37 373.4 932.97 371.14 931.84 368.47 931 364.67 930.86 362.83 931 361 931.28 359.31 931.7 357.63 932.4 356.08 933.24 354.67 934.37 353.26 935.64 351.85 938.74 349.46 942.54 347.49 947.19 345.79 951.83 344.67 956.07 344.25 959.86 344.53 963.38 345.52 966.35 347.2 967.75 348.33 969.02 349.46 970 350.86 970.99 352.41 971.84 354.11 972.53 356.08 973.1 358.75 973.39 361.29 973.24 363.82 972.53 366.08 971.55 368.19 970.28 370.02 968.46 371.57 966.35 372.97 968.46 379.6 968.46 379.6"/>
      <path class="cls-2" d="m989.29,402.27l-55.19-9.43,1.4,7.32,16.06,2.54,3.95,20.56-14.09,7.89,1.56,7.74,47.88-28.59-1.56-8.03h0Zm-6.9,5.21l-21.12,11.97-3.09-15.77,24.21,3.8h0Z"/>
      <polygon class="cls-2" points="984.08 499.58 987.89 499.01 991.12 497.89 993.94 496.06 995.21 494.93 996.2 493.66 997.18 492.39 998.02 490.85 999.29 487.33 999.86 483.38 1000 478.74 999.58 474.79 998.58 471.13 997.04 468.03 995.07 465.5 992.67 463.39 989.85 461.98 986.61 461.13 983.1 460.99 980.28 461.41 977.88 462.26 975.77 463.67 973.95 465.64 973.1 466.91 972.39 468.45 971.28 471.55 968.6 486.06 968.04 488.17 967.47 490 966.62 491.55 965.78 492.82 964.65 493.8 963.53 494.37 962.11 494.93 960.56 495.07 958.31 494.93 956.34 494.37 954.8 493.24 953.52 491.55 952.54 489.44 951.69 487.04 951.12 484.65 950.85 481.83 950.99 478.59 951.41 475.78 952.25 473.24 953.67 471.13 955.22 469.44 957.33 468.17 959.73 467.33 962.54 466.77 962.26 460.15 959.16 460.43 956.76 460.85 954.8 461.7 952.96 462.68 951.12 464.09 949.45 465.78 948.03 467.61 946.9 469.58 945.92 471.97 945.21 474.93 944.79 478.17 944.79 481.69 945.36 486.48 946.21 490.56 947.76 494.08 949.58 497.04 950.71 498.17 951.98 499.3 953.38 500.14 954.8 500.85 956.34 501.41 957.89 501.83 961.42 502.11 964.09 501.69 966.48 501.12 968.6 500 970.42 498.59 971.97 496.9 973.24 494.93 974.22 492.54 974.93 489.86 978.03 473.52 978.88 471.27 979.44 470.29 980.14 469.58 981.12 468.88 982.12 468.45 984.5 467.89 986.48 468.03 988.31 468.59 989.85 469.58 991.12 470.85 992.25 472.4 993.1 474.51 993.65 476.77 993.94 479.44 993.8 482.26 993.38 484.79 992.67 487.04 991.54 488.87 990 490.42 988.16 491.55 986.05 492.39 983.81 492.82 984.08 499.58 984.08 499.58"/>
      <polygon class="cls-2" points="999.44 508.16 993.1 507.89 992.11 525.63 946.06 522.81 945.64 529.99 991.69 532.67 990.56 550.56 996.89 550.84 999.44 508.16 999.44 508.16"/>
      <polygon class="cls-2" points="995.78 561.12 960.42 555.34 958.18 555.2 955.78 555.2 953.25 555.62 951.12 556.33 948.74 557.31 946.77 558.72 944.94 560.27 943.25 562.11 941.97 564.22 940.85 566.61 940.01 569.28 939.44 572.24 939.02 577.03 939.3 581.25 939.72 583.23 940.43 585.06 941.13 586.75 942.26 588.44 943.25 589.85 944.52 591.25 947.47 593.51 950.71 595.2 954.09 596.18 989.01 601.82 990.29 594.77 956.62 589.28 956.2 589.14 953.94 588.58 951.69 587.73 949.87 586.61 948.18 585.06 946.9 583.23 946.06 581.12 945.5 578.72 945.36 576.33 945.5 573.65 946.21 570.83 947.32 568.3 948.88 566.18 950.85 564.64 952.96 563.37 955.63 562.66 958.45 562.53 961.55 562.81 994.65 568.16 995.78 561.12 995.78 561.12"/>
      <path class="cls-2" d="m985.63,617.03l-50.41-14.36-6.06,21.4-.43,2.25-.28,2.11v2.25l.28,2.11.58,2.11.69,1.97,1,1.97,1.26,1.97,1.42,1.68,1.68,1.69,1.84,1.55,1.97,1.55,2.25,1.27,2.54,1.26,2.53.99,2.82.98,2.82.56,2.67.56,2.67.14h2.53l2.54-.14,2.39-.56,2.25-.7,2.11-.85,2.67-1.55,2.11-1.83,1.69-2.11,1.69-2.39,1.42-2.54.84-2.39,5.91-20.98h0Zm-46.48-5.77l38.73,10.99-3.51,12.25-1.27,3.38-1.82,2.82-1,1.26-1.26.99-2.67,1.55-3.24.98-3.53.43-3.95-.28-4.37-.99-3.8-1.27-3.38-1.55-2.81-1.83-2.4-1.84-1.13-1.4-1.13-1.55-.71-1.41-.69-1.69-.29-1.55-.28-1.55.13-1.55.29-1.55,4.08-14.64h0Z"/>
      <polygon class="cls-2" points="969.15 671.38 920.58 651.67 906.06 687.58 911.98 689.97 923.82 660.82 939.86 667.3 929.16 693.77 935.08 696.17 945.78 669.69 960.56 675.75 948.88 704.48 954.8 706.87 969.15 671.38 969.15 671.38"/>
      <polygon class="cls-2" points="949.01 719.12 902.97 694.2 899.59 700.25 936.91 720.53 886.91 723.77 883.11 730.81 929.31 755.74 932.55 749.68 895.22 729.54 945.08 726.59 949.01 719.12 949.01 719.12"/>
      <polygon class="cls-2" points="924.09 764.47 918.74 760.81 908.74 775.45 870.72 749.4 866.63 755.31 904.79 781.37 894.66 796.16 899.88 799.67 924.09 764.47 924.09 764.47"/>
      <polygon class="cls-2" points="893.39 808.13 853.26 774.33 828.33 803.9 833.12 807.98 853.4 783.9 866.77 795.17 848.33 817 853.11 821.08 871.57 799.25 883.82 809.53 863.82 833.33 868.61 837.42 893.39 808.13 893.39 808.13"/>
      <polygon class="cls-2" points="859.46 847.28 823.26 809.25 818.19 814.04 847.49 844.74 798.9 832.49 793.12 837.98 829.32 876 834.39 871.21 805.09 840.37 853.26 853.04 859.46 847.28 859.46 847.28"/>
      <polygon class="cls-2" points="226.73 852.34 221.8 858.68 217.43 851.92 213.77 854.17 218.56 860.94 210.53 863.33 211.94 867.55 219.83 865.02 219.4 873.33 223.91 873.47 224.19 865.16 224.62 865.3 230.53 867.55 231.94 867.98 233.06 863.89 225.32 861.5 230.25 855.02 226.73 852.34 226.73 852.34"/>
      <polygon class="cls-2" points="254.47 872.76 251.23 878.25 266.44 887.41 242.92 926.98 249.12 930.64 272.64 891.07 287.99 900.08 291.22 894.59 254.47 872.76 254.47 872.76"/>
      <polygon class="cls-2" points="294.6 896.42 279.54 928.95 278.83 931.06 278.27 933.46 277.99 935.85 277.99 938.1 278.41 940.64 279.11 943.03 280.24 945.29 281.51 947.26 283.2 949.09 285.31 950.78 287.7 952.33 290.38 953.74 294.75 955.43 296.86 955.85 298.83 956.13 300.94 956.27 302.92 956.13 304.75 955.85 306.72 955.28 309.96 953.74 312.91 951.63 315.45 948.95 317.28 945.85 332.06 913.74 325.59 910.64 311.36 941.62 311.08 942.05 309.82 944.02 308.55 946 306.86 947.54 304.89 948.67 302.78 949.37 300.52 949.65 298.27 949.65 295.73 949.09 293.34 948.24 290.66 946.7 288.55 945.01 287 942.89 286.01 940.64 285.45 938.25 285.45 935.57 285.87 932.75 287 929.8 301.08 899.38 294.6 896.42 294.6 896.42"/>
      <polygon class="cls-2" points="358.54 923.32 343.9 973.74 381.07 984.58 382.76 978.38 352.63 969.65 357.41 952.89 384.88 960.92 386.56 954.86 359.24 946.83 363.61 931.49 393.47 940.21 395.29 934.02 358.54 923.32 358.54 923.32"/>
      <polygon class="cls-2" points="403.88 935.57 392.9 986.83 399.95 988.38 410.93 937.12 403.88 935.57 403.88 935.57"/>
      <polygon class="cls-2" points="420.5 939.37 413.6 991.47 420.5 992.32 426.14 950.22 446.98 995.84 454.86 996.97 461.76 945.01 455.01 944.02 449.37 986.13 428.95 940.5 420.5 939.37 420.5 939.37"/>
      <path class="cls-2" d="m470.21,945.57l-1.12,52.39,22.11.56,2.25-.14,2.25-.28,2.11-.56,1.97-.85,1.97-.98,1.69-1.27,1.69-1.41,1.55-1.69,1.26-1.83,1.27-2.12.99-2.11.98-2.39.71-2.54.56-2.67.28-2.82.14-2.81v-2.96l-.29-2.68-.42-2.67-.71-2.53-.84-2.26-.99-2.25-1.27-1.97-1.4-1.84-2.11-2.11-2.25-1.69-2.54-1.13-2.82-.98-2.67-.71-2.53-.28-21.83-.43h0Zm6.06,46.47l.99-40.27,12.67.28,3.66.43,3.1.98,2.82,1.69,1.13.98,1.13,1.27,1.69,2.81,1.27,3.38.7,3.94.14,4.37-.28,4.08-.7,3.52-.99,3.24-1.26,2.81-.99,1.41-1.13,1.41-1.26,1.13-1.41.98-1.41.85-1.55.56-1.55.28-1.55.14-15.21-.28h0Z"/>
      <polygon class="cls-2" points="519.51 946.13 524.29 998.38 531.33 997.81 529.22 973.46 556.26 970.92 558.51 995.28 565.7 994.72 560.91 942.47 553.73 943.03 555.69 964.58 528.66 967.12 526.68 945.57 519.51 946.13 519.51 946.13"/>
      <path class="cls-2" d="m590.91,935.43l-2.82.71-2.54.84-2.39,1.13-2.11,1.41-1.98,1.41-1.82,1.69-1.55,1.97-1.42,1.97-1.27,2.26-.84,2.25-.71,2.53-.56,2.54-.28,2.67v2.82l.28,2.96.56,2.96.71,2.96.98,2.81,1.13,2.54,1.27,2.39,1.4,2.26,1.69,1.97,1.84,1.83,1.97,1.55,1.98,1.26,2.24,1.13,2.25.85,2.54.56,2.53.28,2.53.14,2.67-.14,2.82-.42,2.82-.71,2.53-.98,2.4-1.13,2.11-1.26,2.11-1.55,1.69-1.68,1.69-1.97,1.27-1.97,1.26-2.25.85-2.25.84-2.54.42-2.54.29-2.82v-2.81l-.29-2.96-.55-2.96-.71-2.96-.98-2.81-1.13-2.54-1.27-2.39-1.4-2.11-1.69-1.97-1.84-1.83-1.97-1.55-1.98-1.26-2.25-1.13-2.24-.85-2.54-.56-2.53-.28-2.54-.14-2.81.14-2.67.56h0Zm1.11,6.06l1.98-.28,1.97-.14,1.98.14,1.82.28,1.69.56,1.69.56,1.55.98,1.55.99,1.42,1.27,1.26,1.26,1.27,1.55.98,1.68,1.84,3.95,1.27,4.37.56,4.65v4.22l-.85,3.8-1.4,3.52-2.11,2.96-1.27,1.27-1.42,1.13-1.55.98-1.69.85-1.82.71-1.84.56-2.11.28-1.84.14-1.97-.14-1.84-.28-3.37-1.13-1.55-.99-1.56-.98-1.4-1.27-1.27-1.27-1.13-1.55-1.13-1.83-1.82-3.8-1.27-4.51-.56-4.5.14-4.23.71-3.8,1.55-3.52,1.97-2.96,1.27-1.27,1.4-1.13,1.55-.99,1.69-.85,1.84-.7,1.82-.56h0Z"/>
      <polygon class="cls-2" points="617.38 931.06 651.74 975 659.05 972.61 660.89 916.7 653.14 919.24 653.01 966.41 624.84 928.53 617.38 931.06 617.38 931.06"/>
      <polygon class="cls-2" points="665.25 914.73 686.66 962.61 722.01 946.83 719.48 941.06 690.74 953.88 683.57 938.1 709.76 926.42 707.08 920.65 681.03 932.19 674.55 917.69 702.86 905.01 700.32 899.24 665.25 914.73 665.25 914.73"/>
      <polygon class="cls-2" points="706.24 896.14 732.71 941.49 738.62 937.97 717.35 901.35 761.72 924.59 768.62 920.5 742.29 875.15 736.23 878.67 757.64 915.44 713.55 891.92 706.24 896.14 706.24 896.14"/>
      <polygon class="cls-2" points="770.03 855.16 774.82 861.5 767.21 864.03 768.34 868.11 776.09 865.3 776.36 873.61 780.87 873.33 780.45 865.02 788.33 867.55 789.61 863.33 781.71 860.94 782 860.65 785.66 855.44 786.51 854.17 782.84 851.92 778.34 858.82 773.55 852.49 770.03 855.16 770.03 855.16"/>
    </g>
    <g>
      <path class="cls-2" d="m493.24,737.29h27.86l60.33,40.79c.74-4.46,1.22-9.01,1.22-13.69,0-45.69-37.04-82.73-82.73-82.73-35.21,0-65.21,22.04-77.15,53.04l84.01,56.8h-27.86l-60.49-40.9c-.76,4.49-1.24,9.08-1.24,13.79,0,45.69,37.04,82.73,82.73,82.73,35.25,0,65.27-22.08,77.18-53.13l-83.87-56.7Z"/>
      <polygon class="cls-2" points="513.52 669.27 563.8 506.2 436.21 506.2 486.34 669.27 513.52 669.27 513.52 669.27"/>
      <polyline class="cls-2" points="567.87 492.54 618.15 329.46 554.36 329.46 527.18 411 500 349.88 472.82 411 445.64 329.46 381.85 329.46 431.98 492.54 472.82 492.54 500 431.42 527.18 492.54 567.87 492.54"/>
      <polyline class="cls-2" points="513.52 492.54 513.52 479.02 486.34 479.02 486.34 492.54 513.52 492.54"/>
      <polyline class="cls-2" points="622.24 315.94 632.8 282 561.12 282 561.12 247.92 643.22 247.92 651.53 220.75 561.12 220.75 561.12 186.81 661.95 186.81 672.51 152.87 506.76 152.87 506.76 315.94 622.24 315.94"/>
      <polyline class="cls-2" points="493.24 315.94 493.24 234.4 438.74 234.4 438.74 268.35 459.16 268.35 459.16 282 429.73 282 398.04 186.81 459.16 186.81 459.16 193.56 493.24 193.56 493.24 152.87 327.49 152.87 377.63 315.94 493.24 315.94"/>
    </g>
  </g>
</svg>