<?xml version="1.0" encoding="utf-8"?>
<!-- Generator: Adobe Illustrator 27.4.0, SVG Export Plug-In . SVG Version: 6.00 Build 0)  -->
<svg version="1.1" id="Layer_1" xmlns="http://www.w3.org/2000/svg" xmlns:xlink="http://www.w3.org/1999/xlink" x="0px" y="0px"
	 viewBox="0 0 996.9 995.79" style="enable-background:new 0 0 996.9 995.79;" xml:space="preserve">
<style type="text/css">
	.st0{fill:#FFFFFF;}
</style>
<g>
	<path class="st0" d="M265.1,151.67c25.11-0.73,49.15-6.62,72.23-16.19c12.06-5,23.7-11.05,35.37-16.96
		c4.24-2.15,7.86-5.48,12.01-7.84c1.81-1.03,4.3-1.55,6.37-1.32c15.15,1.69,30.22,4.16,45.41,5.34c14.9,1.16,29.93,1.92,44.84,1.32
		c16.84-0.68,33.98-1.86,49.1-10.51c4.98-2.85,8.44-2.94,13.57-0.4c19.02,9.45,39.38,14.43,60.56,15.71
		c18.75,1.14,37.51,1.94,56.27,2.9c5.8,0.3,11.6,0.89,17.4,0.94c6.88,0.05,9.47,5.72,12.79,9.86c11.44,14.22,26.17,23.7,42.43,31.3
		c19.16,8.95,39.8,13.09,59.92,18.93c4.26,1.24,8.24,3.44,12.46,4.84c5.31,1.75,6.86,5.65,7.17,10.7
		c1.44,23.05,13.68,38.89,33.48,49.5c9.05,4.85,18.34,9.24,27.31,14.22c2.08,1.15,3.85,3.63,4.83,5.89
		c13.81,31.85,33.5,59.09,61.77,79.75c1.96,1.43,4.04,3.85,4.44,6.1c3.21,17.94,11.78,33.42,21.83,48.17
		c5.69,8.36,11.95,16.34,18.16,24.34c2.75,3.55,3.85,6.55,1.79,11.24c-8.89,20.21-10.2,41.29-6.69,62.99
		c3.01,18.62,7.74,36.59,16.31,53.5c0.97,1.92,0.77,4.92,0.09,7.11c-8.82,28.74-17.03,57.67-21.52,87.42
		c-1.81,12.03-1.17,24.44-1.59,36.67c-0.03,0.96,0.14,2.09,0.64,2.87c3.97,6.19,0.94,10.49-3.15,15.3
		c-22.81,26.83-42.03,56.11-58.46,87.24c-0.84,1.6-2.47,3.1-4.11,3.91c-29.37,14.49-53.74,34.65-71.12,62.68
		c-3.66,5.9-6.49,12.31-10.13,18.22c-0.94,1.53-4.31,3.38-5.18,2.84c-9.14-5.63-17.51-1.6-25.68,1.9
		c-16.03,6.87-29.91,17.24-43.13,28.39c-9.64,8.13-18.64,17.02-28.08,25.4c-1.46,1.3-3.72,1.87-5.72,2.35
		c-15.77,3.83-31.73,7-47.32,11.47c-20.42,5.85-40.1,13.9-58.86,23.89c-9.04,4.82-17.78,10.25-26.29,15.96
		c-5.46,3.66-10.75,1.75-15.81,0.45c-26.6-6.83-53.62-9.84-80.98-8.39c-20.59,1.1-40.8,5.06-59.99,12.99
		c-4.69,1.94-8.3,1.27-12.48-1.39c-22.54-14.29-45.66-27.57-71.28-35.69c-20.5-6.5-41.47-8.91-62.86-5.41
		c-3.75,0.61-5.91,0.26-7.58-3.91c-9.08-22.68-24.35-40.35-44.29-54.37c-19.92-14.01-42.03-22.19-65.78-26.41
		c-3.83-0.68-6.2-2.48-7.43-6.3c-9.62-29.85-26.28-55.23-49.39-76.32c-12.34-11.26-26.38-19.91-42.27-25.35
		c-7.23-2.48-7.56-3.01-6.28-10.68c4.43-26.55-1.11-51.52-12.56-75.36c-6.31-13.14-14.76-24.76-27.02-33.21
		c-2.81-1.94-3.77-4.6-2.42-8.26c10.45-28.36,9.19-56.79-1.27-84.68c-3.36-8.96-9.52-16.94-14.9-25.04
		c-2.36-3.56-2.98-6.1-0.16-9.66c21.5-27.2,34.78-57.89,38.22-92.53c0.84-8.43,0.55-16.97,1.29-25.41c0.24-2.68,1.49-5.86,3.37-7.7
		c22.61-22.16,41.26-47.27,56.25-75.08c10.26-19.04,17.83-39.21,23.25-60.15c0.91-3.5,2.62-5.53,6.14-6.23
		c16.27-3.25,30.3-11.54,44.07-20.17c20.92-13.11,39.73-28.9,56.58-46.93c6.45-6.9,12.77-14.04,18.24-21.72
		c3.14-4.4,6.51-5.61,11.31-5.07C262.09,151.81,263.61,151.67,265.1,151.67z M821.46,869.72c0.25-0.23,1.45-0.92,2.06-1.97
		c2.26-3.87,4.13-7.97,6.49-11.77c17.14-27.75,40.31-49.04,69.02-64.45c3.38-1.82,7.46-3.94,9.16-7.05
		c16.62-30.42,35.82-59.07,57.66-85.98c1.2-1.48,1.42-4.15,1.29-6.22c-0.36-5.43-1.73-10.84-1.71-16.25
		c0.07-19.7,4.29-38.89,8.69-57.92c4.18-18.07,9.84-35.8,14.65-53.73c0.68-2.53,1.14-5.77,0.15-7.98
		c-8.69-19.4-14.41-39.58-16.32-60.75c-1.76-19.58-0.67-38.86,7.15-57.33c0.66-1.55,0.04-4.29-0.99-5.79
		c-5.65-8.2-11.72-16.1-17.43-24.26c-9.08-12.99-16.75-26.78-20.42-42.31c-1.34-5.67-3.49-9.93-8.62-12.87
		c-2.98-1.71-5.67-4.05-8.18-6.43c-21.43-20.42-38.74-43.75-50.13-71.26c-0.7-1.69-2.18-3.45-3.76-4.33
		c-6.8-3.76-13.7-7.36-20.71-10.72c-23.39-11.23-38.91-28.5-42.23-55.02c-0.7-5.62-3.16-8.74-8.71-10.24
		c-15.65-4.24-31.28-8.57-46.76-13.39c-27.18-8.45-51.11-21.99-68.5-45.36c-0.95-1.28-2.82-2.39-4.39-2.61
		c-4.59-0.64-9.24-0.85-13.88-1.11c-22.74-1.32-45.49-2.36-68.21-3.99c-17.15-1.23-33.66-5.78-49.29-12.8
		c-6.77-3.04-12.59-5.53-19.07-0.11c-1.21,1.01-3.03,1.29-4.58,1.87c-16.92,6.4-34.74,7.39-52.44,7.51
		c-26.92,0.18-53.74-1.94-80.26-7.02c-1.31-0.25-3.09-0.08-4.14,0.64c-15.34,10.61-31.84,18.86-49.23,25.55
		c-25.4,9.78-51.36,16.45-78.8,16.36c-2.03-0.01-4.74,1.42-6.01,3.05c-19.47,25.21-42.44,46.71-68.73,64.59
		c-15.08,10.25-30.58,20.01-48.5,24.6c-4.7,1.2-6.01,3.8-7.44,7.78c-5.54,15.44-10.61,31.13-17.5,45.98
		c-14.88,32.08-35.57,60.25-60.62,85.24c-1.47,1.46-2.49,3.94-2.66,6.03c-0.7,8.44-0.09,17.08-1.61,25.34
		c-2.66,14.44-5.64,28.94-10.14,42.89c-5.58,17.32-14.84,32.99-26.02,47.41c-1.8,2.32-1.79,4.18-0.02,6.62
		c2.81,3.88,5.57,7.89,7.69,12.17c15.66,31.56,18.33,64.28,8.45,98.1c-0.41,1.41,0.47,3.74,1.53,4.93
		c3.66,4.08,8.19,7.46,11.46,11.8c22.03,29.18,31.89,62.01,28.05,98.51c-0.46,4.41,1.21,5.59,4.25,6.71
		c19.74,7.27,36.06,19.63,50.35,34.67c18.06,19.01,32.04,40.73,40.47,65.68c1.46,4.33,3.61,6.25,7.75,6.84
		c16.09,2.3,31.19,7.94,45.47,15.29c28.71,14.76,51.28,35.92,64.46,65.99c1.14,2.61,2.59,3.01,5.02,2.57
		c21.12-3.8,41.63-0.52,61.83,5.61c26.24,7.96,49.58,21.83,72.85,35.85c2.07,1.25,5.36,1.73,7.69,1.1
		c8.77-2.35,17.25-5.88,26.09-7.92c21.42-4.95,43.15-8.24,65.16-5.28c19.37,2.61,38.59,6.28,57.93,9.19
		c2.61,0.39,5.85-0.26,8.17-1.55c8.7-4.81,16.95-10.45,25.72-15.11c19.2-10.19,39.31-18.39,60.16-24.45
		c15.55-4.52,31.51-7.64,47.25-11.53c1.96-0.49,4.06-1.49,5.5-2.88c16.06-15.47,32.5-30.52,51.54-42.3
		C788.54,875.55,802.4,866.17,821.46,869.72z"/>
	<path class="st0" d="M795.18,173.81c-1.33-2.82-2.6-4.5-2.89-6.33c-0.88-5.57-1.33-11.2-2.05-16.79
		c-1.01-7.8-4.9-13.55-12.04-17.17c-6.51-3.3-6.96-6.57-0.95-11.02c10.86-8.05,17.5-18.33,19.13-31.85
		c0.16-1.33,1.78-2.49,2.73-3.72c1.06,1.1,2.69,2.02,3.09,3.32c1.84,6.02,3.15,12.2,5.02,18.22c2.79,9.01,6.86,17.2,15.16,22.66
		c3.82,2.52,4.16,6.54,0.75,8.55c-11.41,6.72-17.47,17.82-24.11,28.51C798.09,169.69,797.03,171.11,795.18,173.81z M813.53,136.11
		c-5.07-9.73-9.76-18.71-14.29-27.4c-4.93,6.38-9.72,12.57-14.81,19.16c8.71,6.41,12.11,15.98,13.31,27.53
		C803.63,148.21,808.89,141.79,813.53,136.11z"/>
	<path class="st0" d="M385.6,41.37c-0.75,1.61-1.32,3.36-2.31,4.84c-6.09,9.17-10.63,18.98-13.39,29.67
		c-0.46,1.76-2.49,3.12-3.79,4.66c-0.95-1.89-2.6-3.73-2.74-5.68c-0.88-12.23-2.76-24.08-11.27-33.69c-2.06-2.33-4.53-4.3-6.84-6.4
		c-2.65-2.41-3.05-5.14-0.78-7.9c6.8-8.3,13.67-16.54,20.61-24.72c0.86-1.01,2.78-2.43,3.36-2.11c1.24,0.68,2.24,2.25,2.79,3.67
		c4.15,10.75,8.17,21.56,12.24,32.35C384.11,37.76,384.81,39.43,385.6,41.37z M366.45,12.68c-4.61,5.67-8.16,10.47-12.19,14.82
		c-2.14,2.31-1.97,3.71,0.09,5.73c5.81,5.72,9.51,12.7,11.84,20.47c0.43,1.44,1.16,2.79,2.08,4.97c3.15-5.39,6.05-9.65,8.17-14.27
		c0.93-2.03,0.98-5.05,0.2-7.16c-2.11-5.75-4.92-11.24-7.36-16.87C368.33,18.17,367.62,15.88,366.45,12.68z"/>
	<path class="st0" d="M491.28,133.2c26.81,2.18,53.75,3.42,80.41,6.82c24.92,3.18,49.68,8.06,73.58,16.34
		c16.99,5.88,34.47,10.64,50.89,17.82c34.34,15.01,67.2,32.78,97.12,55.75c19.73,15.15,38.61,31.16,55.78,49.16
		c17.01,17.83,32.48,36.91,46.17,57.42c14.96,22.41,27.8,45.98,38.02,70.91c10.59,25.85,18.83,52.45,23.83,79.97
		c4.02,22.11,7.34,44.37,5.98,66.9c-1.31,21.71-4.43,43.19-9.46,64.44c-6.79,28.71-16.66,56.26-29.57,82.69
		c-22.19,45.45-52.4,85.07-89.09,119.74c-20.53,19.4-42.85,36.68-66.73,51.68c-22.71,14.26-46.45,26.75-71.34,37.06
		c-27.61,11.44-55.8,20.9-85.06,26.83c-17.83,3.61-35.87,6.31-53.89,8.89c-24.77,3.54-49.74,4.14-74.68,2.92
		c-23.52-1.15-47-3.37-70.02-8.74c-18.82-4.39-37.76-8.44-56.26-13.95c-15.47-4.61-30.48-10.85-45.5-16.86
		c-31.48-12.6-60.84-29.29-88.39-48.87c-34.54-24.55-65.14-53.41-91.11-87.11c-28.37-36.81-50.08-76.97-64-121.39
		c-8.02-25.58-13.89-51.52-15.79-78.28c-0.79-11.11-2.05-22.25-1.84-33.36C50.75,518.65,55,497.8,59.48,477
		c6.14-28.49,15.54-55.93,27.24-82.48c9.55-21.66,21.06-42.39,34.08-62.28c14.26-21.76,30.17-42.23,47.96-61.07
		c18.11-19.19,37.8-36.79,59.18-52.4c19.71-14.38,40.2-27.64,62.16-38.14c18.45-8.83,37.62-16.28,56.85-23.3
		c13.46-4.91,27.36-9.13,41.42-11.78c21.97-4.14,44.17-7.27,66.39-9.69c11.99-1.3,24.24-0.23,36.37-0.23
		C491.19,134.82,491.24,134.01,491.28,133.2z M490.68,142.52c-19.73,1.35-40.44,1.65-60.8,4.47c-20.43,2.83-40.62,7.74-60.72,12.52
		c-28.66,6.82-55.66,18.23-81.76,31.75c-25.4,13.16-49.06,28.97-71.45,46.85c-25.57,20.43-48.44,43.46-68.39,69.27
		c-10.74,13.89-20.4,28.67-29.89,43.46c-14.58,22.71-25.89,47.13-35.34,72.35c-8.74,23.31-15.64,47.2-19.86,71.78
		c-1.9,11.1-4.43,22.21-4.97,33.4c-0.67,14.06-0.37,28.27,0.96,42.28c1.54,16.31,3.66,32.7,7.27,48.65
		c9.34,41.25,25.57,79.8,48.13,115.65c12.95,20.58,27.8,39.67,44.2,57.62c20.36,22.27,42.97,41.92,67.54,59.4
		c20.18,14.36,41.41,26.87,63.59,37.85c26.94,13.33,54.96,23.79,83.89,31.86c25.24,7.04,50.79,12.67,76.92,15.07
		c17.84,1.64,35.72,3.14,53.61,3.7c11.74,0.37,23.54-0.99,35.3-1.67c26.58-1.53,52.69-6.06,78.6-12.03
		c35.84-8.25,70.27-20.54,103.24-36.73c24.27-11.92,47.42-25.79,69.28-41.87c26.78-19.68,51.26-41.8,72.89-66.95
		c33.51-38.95,58.84-82.72,75.23-131.51c6.82-20.28,12.09-41.02,14.88-62.21c2.08-15.79,4.36-31.84,3.58-47.63
		c-1.01-20.29-4.11-40.61-7.92-60.6c-4.97-26.09-13.48-51.29-24.24-75.59c-11.3-25.53-25.09-49.74-41.44-72.4
		c-18.72-25.94-40.04-49.57-64.03-70.77c-22.06-19.5-45.86-36.7-71.29-51.41c-28.57-16.52-58.6-30.05-90.05-40.29
		c-33.03-10.75-66.76-18.48-101.31-21.98C534.85,144.63,513.22,143.94,490.68,142.52z"/>
	<path class="st0" d="M143.3,736.7c2.07-10.46,4.3-20.33,5.95-30.29c4.17-25.2,8.23-50.42,12.05-75.67
		c3.84-25.39,5.05-50.99,4.65-76.63c-0.39-24.43-1.94-48.83-6.56-72.88c-5.29-27.51-11.04-54.94-16.67-82.39
		c-1-4.87-2.45-9.64-3.55-14.49c-1.11-4.9,0.83-7.92,5.52-9.79c32-12.75,64.06-25.37,95.93-38.45
		c18.21-7.48,36.45-15.06,54.05-23.83c26.68-13.3,53.32-26.83,79.05-41.85c22.42-13.09,43.94-27.84,65.16-42.83
		c19.81-13.99,37.77-30.33,54.13-48.29c3.3-3.62,5.89-4.18,10.12-1.3c18.39,12.52,36.77,25.06,55.57,36.95
		c23.12,14.62,46.25,29.32,70.11,42.66c30.33,16.96,60.99,33.44,92.27,48.54c23.19,11.19,47.35,20.5,71.53,29.44
		c26.81,9.92,54.15,18.44,81.23,27.63c4.6,1.56,6.47,6.34,4.07,10.73c-13.68,25.06-20.59,52.34-26.69,79.93
		c-6.82,30.85-10.65,62.13-13.67,93.51c-4.94,51.44-4.96,103.05-4.15,154.65c0.19,12.1,1.69,24.18,2.69,36.26
		c0.61,7.42-0.76,9.57-8.99,12.55c-20.22,7.31-40.57,14.27-60.68,21.89c-20.11,7.61-40.17,15.41-59.91,23.92
		c-22.04,9.49-43.98,19.3-65.45,30.01c-23.85,11.9-47.62,24.12-70.48,37.79c-25.86,15.46-50.7,32.64-75.92,49.17
		c-4.85,3.18-9.49,6.7-14.05,10.29c-2.5,1.97-4.37,1.84-6.34-0.58c-18.29-22.45-40-41.39-63.34-58.14
		c-21.62-15.52-44.15-29.96-67.23-43.22c-24.36-14-49.56-26.61-74.89-38.79c-30.02-14.43-61.27-25.96-93.28-35.24
		c-8.55-2.48-17.51-3.71-26.35-4.98C144.78,742.32,144.39,739.18,143.3,736.7z M151.06,733.18c14.82,3.94,28.69,7.09,42.21,11.34
		c30.06,9.43,59.18,21.39,87.54,35.08c19.4,9.36,38.94,18.59,57.5,29.44c23.17,13.55,45.71,28.24,67.96,43.28
		c24.28,16.41,46.35,35.56,66.01,57.38c6.86,7.61,5.2,6.13,12.53,1.26c24.59-16.32,48.74-33.35,73.81-48.89
		c31.51-19.53,64.43-36.64,98.04-52.29c22.61-10.52,45.52-20.45,68.61-29.88c21.88-8.94,44.13-16.98,66.28-25.27
		c12.5-4.68,25.11-9.06,37.64-13.57c0-2.35,0.09-4.35-0.01-6.33c-0.86-17.11-2.27-34.21-2.53-51.33c-0.34-22.81-0.3-45.65,0.5-68.45
		c0.84-23.91,2.16-47.84,4.41-71.66c2.12-22.43,5.32-44.79,8.81-67.06c4.14-26.39,10.22-52.38,19.33-77.55
		c3.31-9.14,7.2-18.07,11-27.53c-7.8-2.51-15.34-4.89-22.84-7.37c-16.8-5.55-33.75-10.71-50.33-16.85
		c-17.82-6.6-35.41-13.86-52.89-21.34c-17.48-7.48-35.09-14.84-51.94-23.59c-25.26-13.12-50.17-26.96-74.75-41.32
		c-23.62-13.79-46.76-28.41-69.85-43.08c-15.68-9.96-30.91-20.62-46.32-31c-2.06-1.39-3.77-1.81-5.58,0.45
		c-1.24,1.54-2.8,2.85-4.3,4.16c-17.58,15.45-34.47,31.81-52.94,46.13c-33.11,25.66-69.3,46.74-106.71,65.45
		c-31.3,15.66-63.07,30.47-95.19,44.39c-28.49,12.35-57.69,23.11-86.72,34.19c-4,1.53-4.64,3.02-3.82,6.74
		c5.81,26.21,12.34,52.3,16.92,78.73c4.07,23.5,7.12,47.31,8.5,71.11c1.91,33.09,0.22,66.24-4.79,99.07
		c-3.88,25.38-8.47,50.65-12.73,75.96C153.23,719.96,152.09,726.95,151.06,733.18z"/>
	<path class="st0" d="M333.67,547.38c-3.29,3.65-6.44,7.43-9.93,10.88c-1.28,1.26-3.34,1.72-5.04,2.55
		c-0.19-2.09-1.33-4.84-0.42-6.16c3.88-5.56,8.38-10.69,12.64-15.99c6.85-8.55,13.69-17.11,20.52-25.68
		c0.37-0.46,0.52-1.09,0.84-1.81c-14.97-3.13-25.59,3.18-34.15,14.34c-1.11,1.45-1.83,3.32-3.2,4.43c-1.46,1.18-3.47,1.68-5.23,2.47
		c-0.22-2.12-1.42-4.93-0.49-6.24c3.9-5.5,8.13-10.85,12.79-15.72c8.02-8.36,18.55-9.22,29.4-8.96c6.96,0.17,10.78-3.83,10.55-10.81
		c-0.04-1.04-1.7-2.52-2.89-2.89c-1.68-0.52-3.68,0.09-5.44-0.29c-7.01-1.5-9.9-4.68-10.18-12.02c-0.16-4.1,0.09-8.42,1.26-12.31
		c1.09-3.61,0.34-6.1-1.9-8.62c-2.76-3.1-5.63-6.11-8.26-9.32c-1.95-2.37-3.6-1.95-5.99-0.53c-6.38,3.78-12.76,7.67-19.51,10.7
		c-9.58,4.3-21.11-0.32-23.09-9.66c-1.78-8.37-2.9-17.18-2.37-25.67c1.38-22.05,7.85-42.86,20.38-61.16
		c14.72-21.48,31.97-40.84,54.18-54.92c10.44-6.62,21.83-5.4,31.85,1.2c3.19,2.1,5.26,7.35,5.96,11.48
		c1.44,8.46,1.76,17.12,2.21,25.72c0.15,2.87,0.51,4.72,3.37,6.36c5.46,3.13,10.51,7,15.73,10.55c2.49,1.69,4.33,1.66,6.92-0.68
		c13.53-12.23,27.13-24.41,41.19-36.02c5.45-4.5,12.64-5.8,19.78-4.48c5.37,1,9.42,6.47,9,13.32c-0.39,6.19-2.22,12.29-3.52,18.41
		c-0.3,1.4-1,2.71-1.8,4.81c4.95-1.26,9.17-2.29,13.37-3.41c25.6-6.83,51.66,8.43,56.16,36.08c3.56,21.83-3.71,40.74-16.45,57.69
		c-6.91,9.2-15.37,17.26-23.3,25.68c-3.26,3.46-3.26,4.56,1.25,5.92c6.45,1.95,12.53,2.2,18.12-2.85
		c5.48-4.95,10.05-4.65,15.07,0.79c1.85,2,3.11,2.35,5.43,1.17c7.22-3.66,14.53-7.14,21.81-10.68c5.46-2.65,8.87-7.04,9.97-12.89
		c0.98-5.2,1.7-10.52,1.84-15.81c0.3-11.16,0.56-22.35,0.06-33.49c-0.44-9.76,3.92-16.85,11.29-21.96
		c7.7-5.34,15.97-9.97,24.31-14.28c16-8.27,32.22-16.11,48.38-24.08c8.15-4.02,16.25-8.19,24.58-11.81
		c11.5-4.99,21.6-0.12,30.75,6.1c18.33,12.46,31.62,29.26,39.22,50.15c4.75,13.06,3.98,26-3,38.38
		c-5.43,9.64-11.45,18.62-21.84,23.68c-1.17,0.57-2.46,2-2.7,3.23c-5.41,27.38-13.36,54-23.72,80.48c2.16,0.65,4.27,1.39,6.42,1.92
		c9.27,2.3,14.17,7.94,15.77,17.23c1.88,10.89-0.07,21.46-1.55,32.16c-1.58,11.47-2.62,23.01-3.89,34.52
		c-0.2,1.81,0.04,3.77-0.58,5.41c-0.53,1.39-2.02,2.42-3.08,3.61c-1.04-1.29-2.95-2.55-2.98-3.87c-0.15-5.98-0.22-12.02,0.52-17.94
		c1.61-12.83,3.99-25.56,5.52-38.39c0.58-4.88,0.15-10-0.62-14.88c-0.88-5.62-6.54-9.53-13.83-9.89
		c-12.78-0.63-25.57-1.01-38.35-1.42c-8.31-0.27-16.63-0.36-24.94-0.66c-2.57-0.09-4.32,0.34-5.43,3.09
		c-6.14,15.2-7.13,30.97-5.51,47.03c0.98,9.73,2.46,19.4,3.3,29.14c0.15,1.75-1.69,3.66-2.61,5.5c-1.18-1.47-3.15-2.8-3.43-4.43
		c-4.27-25.04-7.91-50.42,0.59-75c3.62-10.46,3.13-17.46-4.89-24.75c-3.34-3.04-6.05-7.27-7.78-11.48
		c-3.82-9.25-11.8-11.39-20.18-13.2c-9.15-1.97-17.34,0.97-25.27,5.1c-1.32,0.68-2.53,1.64-3.91,2.11
		c-12.3,4.23-19.87,24.47-17.07,35.48c3.69,14.52,10.34,27.56,18.26,40.09c1.68,2.66,3.82,5.18,4.84,8.08c0.7,2-0.17,4.54-0.34,6.84
		c-1.82-0.96-4.54-1.47-5.27-2.97c-1.61-3.29-3.84-3.94-7.14-4.06c-19.44-0.71-38.89-1.35-58.31-2.55
		c-15.53-0.97-31.08-2.23-46.51-4.23c-20.26-2.62-38.83-10.19-56.02-21.23c-18.96-12.18-38.01-24.21-56.95-36.43
		c-2.35-1.52-3.56-1.51-5.21,0.9c-2.61,3.82-5.32,7.71-8.64,10.89c-3.77,3.61-3.16,7.62-2.74,11.94
		c1.25,12.69,3.91,25.48,3.14,38.06c-0.83,13.59-4.84,26.99-7.69,40.43c-0.23,1.06-2.23,1.75-3.4,2.61c-0.8-1.77-2.5-3.68-2.25-5.29
		c0.95-6.22,2.43-12.36,3.87-18.49c3.33-14.18,4.56-28.36,1.32-42.77c-0.96-4.28-1.04-8.76-1.52-13.15
		C334.62,547.68,334.15,547.53,333.67,547.38z M561.07,552.13c0.13-1.35,0.27-1.71,0.18-2c-4.24-14.09-4.57-27.77,4.02-40.62
		c0.59-0.88,0.74-2.8,0.18-3.6c-5.82-8.47-11.71-16.89-17.93-25.06c-0.71-0.93-4.36-1.04-5.34-0.13c-8.85,8.31-18.61,7.51-28.6,3.1
		c-7.27-3.21-8.82-9.09-3.56-15.16c6.91-7.98,15.04-14.91,21.81-22.99c12.4-14.79,21.42-31.15,20.51-51.43
		c-1.01-22.61-20.81-38.27-43.91-35.13c-17.38,2.36-31.42,10.96-43.96,22.4c-2.6,2.37-4.87,6.41-5.08,9.82
		c-0.61,9.96-0.33,19.99,0.03,29.98c0.49,13.5-0.48,26.71-4.99,39.6c-6.44,18.39-26.57,35.07-50.17,31.56
		c-4.77-0.71-10.12-2.94-13.49-6.23c-4.28-4.17-6.81-10.12-10.07-15.26c-3.18,3.49-6.65,7.48-10.32,11.28
		c-3.24,3.35-3.19,9,0.61,11.81c6.67,4.93,13.22,10.1,20.31,14.35c13.91,8.34,27.89,16.65,42.33,23.98
		c16.33,8.29,33.92,13.13,52.16,15.25c9.05,1.05,18.14,1.97,27.24,2.46C528.97,550.97,544.91,551.47,561.07,552.13z M391.39,335.34
		c0-2.66,0.13-5.34-0.02-7.99c-0.75-13.11-7.73-20.1-19.65-18.54c-5.03,0.66-10.4,2.7-14.51,5.65
		c-17.53,12.55-32.27,28.06-44.8,45.53c-16.65,23.19-24.75,48.88-21.35,77.69c0.91,7.69,6.01,12.09,13.37,9.37
		c7.79-2.88,15.87-6.32,22.23-11.49c12.57-10.2,24.69-21.14,35.8-32.9C380.16,383.93,391.44,361.94,391.39,335.34z M600.04,411.64
		c-0.63,0.02-1.27,0.04-1.9,0.07c0,11.45,0.41,22.91-0.11,34.34c-0.57,12.69-5.41,23.17-17.8,28.84c-6.39,2.93-12.68,6.09-19.34,9.3
		c3.61,5.53,6.92,10.61,9.95,15.24c8.94-3.86,17.28-7.4,25.57-11.05c8.92-3.93,17.66-0.37,26.73,1.53
		c-0.35-3.33-0.72-5.62-0.81-7.93c-0.39-11.15,5.51-20.95,14.63-24.44c12.85-4.92,27.81-1.04,36.36,9.72
		c1.88,2.36,3.24,2.32,5.81,1.22c12.73-5.45,25.6-10.57,38.37-15.91c6.74-2.82,13.4-5.86,20.09-8.81
		c-21.36-5.85-34.56-20.02-44.05-38.34c-9.43-18.19-13.77-37.16-6.78-58.23c-6.17,2.92-11.16,5.51-16.33,7.64
		c-3.61,1.48-4.72,3.03-3.03,7.04c6.45,15.3,8.51,30.99,2.87,47.1c-3,8.57-8.51,15.02-15.44,20.85c-5.76,4.85-12,4.4-18.33,3.77
		c-10.85-1.08-21.29-3.7-28.98-12.33C604.83,418.25,602.52,414.86,600.04,411.64z M735.78,454.97c-6.15,2.3-10.97,4-15.71,5.89
		c-4.9,1.96-9.71,4.16-14.58,6.18c-8.87,3.67-17.74,7.36-26.67,10.9c-2.95,1.17-6.11,2.17-8.39-1.39
		c-6.13-9.55-15.21-13.01-26.05-11.8c-10.63,1.19-16.83,9.52-14.73,19.03c1.57,7.13,4.33,14.36,8.17,20.54
		c5.03,8.1,12.19,14.86,17.39,22.88c3.03,4.66,6.65,4.53,10.92,4.52c13.83-0.02,27.66-0.07,41.49,0.05
		c3.05,0.03,4.83-0.68,5.86-3.91c5.39-16.86,11.14-33.61,16.48-50.49C732.18,470.37,733.69,463.12,735.78,454.97z M487.4,336.33
		c0.06-9.13-3.22-11.8-9.36-9.09c-6.1,2.7-12.29,5.74-17.49,9.84c-18.89,14.89-36.14,31.56-52.57,49.16
		c-17.59,18.84-34.41,38.25-47.68,60.39c-4.36,7.27-7.61,15.46-9.86,23.64c-1.82,6.6,3.04,10.13,9.73,8.05
		c2.14-0.67,4.24-1.97,5.93-3.46c8.11-7.15,13.98-16.01,18.1-25.89c5.58-13.38,14.51-23.4,28.25-28.21
		c5.76-2.02,9.64-5.64,13.01-10.12c13.07-17.35,28.4-32.38,45.73-45.45C481.53,357.4,485.16,345.96,487.4,336.33z M711.11,337.2
		c-3.21,0.96-5.57,1.28-7.55,2.33c-10.08,5.31-13.21,14.95-13.08,25.09c0.36,27.05,11.12,49.17,34.42,63.86
		c8.86,5.58,19.23,7.64,28.61,1.16c9.62-6.64,14.84-16.91,13.14-28.34c-3.74-25.13-18.99-43.17-39.36-57.08
		C722.38,340.87,716.2,339.35,711.11,337.2z M360.37,513.82c1.58,1.07,2.78,1.94,4.03,2.73c14.91,9.52,30.08,18.66,44.67,28.65
		c21.29,14.57,44.13,24.86,70.02,27.21c15.71,1.43,31.47,2.24,47.22,3.23c11.1,0.7,22.21,1.32,33.33,1.83
		c4.5,0.21,9.02,0.03,14.11,0.03c-2.56-5.15-4.55-9.69-7.09-13.89c-0.71-1.18-3.03-1.87-4.65-1.95
		c-16.76-0.84-33.54-1.28-50.28-2.29c-21.03-1.28-41.91-3.7-62-10.57c-23.26-7.95-44.13-20.41-64.3-34.18
		c-6.21-4.24-12.43-8.44-18.84-12.78C364.4,506.06,362.51,509.71,360.37,513.82z M411.5,483.65c11.77-2.05,24.12-9.17,33.07-21.87
		c3.7-5.24,5.27-11,3.22-17.35c-2.93-9.09-13.42-16.5-23.67-16.76c-17.64-0.45-35.95,18.34-35.69,36.6
		C388.61,475.73,396.52,483.6,411.5,483.65z M609.72,385.37c-2.08,2.41-4.39,3.88-4.31,5.2c0.39,6.21,0.06,13,2.53,18.43
		c5.07,11.14,16.25,13.79,27.18,15.59c5.41,0.89,10.68,1.66,16.12-2.13c20.02-13.95,18.4-43.55,7.13-61.96
		c-4.8,2.53-9.61,5.07-14.83,7.82c13.63,9.84,13.95,20.79,9.83,30c-4.1,9.16-14.08,12.89-22.17,12.02
		C619.99,409.13,611.21,402.54,609.72,385.37z M414.66,367.61c-6.35-4.14-11.97-7.79-18.24-11.87
		c-8.46,35.59-32.71,59.23-58.15,82.11c3.96,4.44,7.35,8.23,11.09,12.43C366.82,419.16,389.64,392.98,414.66,367.61z M648.98,388.45
		c-0.7-2.15-0.85-4.76-2.19-6.39c-8.68-10.6-21.51-7.94-27.91,1.02c-1.7,2.38-1.13,7.38,0.01,10.6c2.09,5.9,7.96,7.02,13.42,7.8
		C640.73,402.7,648.44,396.42,648.98,388.45z M452.1,435.21c0-14.74,0-27.92,0-41.1c-0.61-0.23-1.23-0.45-1.84-0.68
		c-6.99,8.3-13.97,16.59-21.58,25.63C439.44,420.99,445.84,426.73,452.1,435.21z"/>
	<path class="st0" d="M422.5,703.36c1.9,0.57,3.83,1.05,5.69,1.71c11.86,4.24,20.26,21.26,15.49,33.04
		c-1.29,3.18-5.4,6.12-8.86,7.33c-6.81,2.38-14,4.36-21.16,4.89c-10.75,0.8-21.6,0.21-32.87,0.21c0,2.2,0.35,4.04-0.1,5.65
		c-0.46,1.66-1.7,3.11-2.6,4.64c-1.24-1.51-3.25-2.86-3.58-4.54c-1.64-8.45-2.39-17.09-4.27-25.48
		c-3.5-15.66-7.33-31.25-11.49-46.74c-2.11-7.86-1.01-11.5,6.33-15.14c12.67-6.28,25.94-10.25,40.21-9.13
		c10.99,0.86,20.87,4.35,26.11,15.17c4.36,8.98,0.67,16.47-5.29,23.16c-1.27,1.42-3.4,2.08-5.14,3.08
		C421.48,701.93,421.99,702.65,422.5,703.36z M400.43,667.48c-0.12,0.41-0.24,0.83-0.36,1.24c-11.4,0.54-22.17,3.29-32.36,8.53
		c-2.53,1.3-2.91,2.3-2.08,4.91c2.41,7.55,4.55,15.2,6.59,22.86c0.7,2.63,1.83,2.84,4.3,2.32c7.11-1.49,14.29-2.66,21.47-3.83
		c9.68-1.58,17.93-5.88,24.58-13.04c5.89-6.35,4.93-13.45-2.92-17.02C413.58,670.69,406.86,669.41,400.43,667.48z M375.49,719.67
		c1.09,6.78,1.97,12.49,2.92,18.18c0.42,2.5,1.4,4.06,4.55,3.92c11.61-0.49,23.25-0.51,34.86-1.09c4.25-0.21,8.75-0.84,12.57-2.54
		c2.79-1.25,5.95-4.23,6.69-7.03c1.67-6.33-1.81-13-7.93-15.57c-4.78-2.01-10.34-4.24-15.18-3.58
		C401.17,713.69,388.58,716.94,375.49,719.67z"/>
	<path class="st0" d="M503.39,761.22c27.86,0.06,55.36,3.16,82.67,8.3c9.61,1.81,19.27,3.3,28.85,5.23c1.85,0.37,4.29,1.7,4.97,3.24
		c1.65,3.73-1.28,6.35-5.88,5.47c-6.52-1.24-12.97-2.92-19.53-3.93c-15.87-2.44-31.72-5.4-47.7-6.68
		c-19.37-1.55-38.88-2.55-58.28-1.99c-16.49,0.48-33.05,2.74-49.32,5.66c-15.24,2.74-30.12,7.47-45.22,11.08
		c-1.63,0.39-3.65-0.89-5.49-1.4c0.99-2.19,1.41-5.55,3.07-6.35c4.26-2.07,9.08-2.98,13.67-4.39c23.42-7.16,47.33-11.55,71.79-12.9
		C485.8,762.08,494.6,761.66,503.39,761.22z"/>
	<path class="st0" d="M538.55,744.11c-0.72,1-1.61,2.22-2.49,3.45c-1.52-1.2-3.83-2.1-4.45-3.66c-4.25-10.8-8.36-21.67-12.06-32.67
		c-1.46-4.34-3.5-5.93-8.17-5.7c-8.64,0.43-17.31,0.29-25.97,0.04c-3.4-0.1-5.03,1.12-6.23,4.22c-4.57,11.74-9.24,23.45-14.22,35.02
		c-0.94,2.2-4.38,5.58-5.1,5.23c-3.64-1.79-2.37-5.02-1.11-8.1c7.13-17.33,14.45-34.59,21.14-52.09
		c4.55-11.89,8.19-24.13,12.24-36.22c0.31-0.94,0.43-2.04,1-2.78c0.9-1.17,1.99-2.65,3.25-2.93c0.75-0.17,2.34,1.51,2.89,2.68
		c6.7,14.06,13.69,28.01,19.77,42.34c6.59,15.54,12.31,31.45,18.39,47.21C537.84,741.21,538.06,742.35,538.55,744.11z
		 M513.14,696.43c-5.44-11.53-10.46-22.18-15.49-32.83c-0.44,0.1-0.89,0.2-1.33,0.31c-3.67,10.68-7.33,21.36-11.17,32.53
		C494.53,696.43,503.12,696.43,513.14,696.43z"/>
	<path class="st0" d="M620.53,672.57c-19.06-0.55-34.69,6.29-45.74,22.1c-6.15,8.79-8.38,18.9-5.94,29.37
		c2.95,12.65,12.29,19.11,27.84,20.42c2.15,0.18,4.47-0.4,6.43,0.24c1.62,0.52,3.59,2.07,4.07,3.59c0.78,2.46-0.32,4.19-3.55,4.53
		c-24.42,2.57-44.15-13.17-42.01-40.23c1.91-24.22,23.18-45,46.68-47.9c6.23-0.77,12.58-1.03,18.85-0.82
		c2.06,0.07,5.06,1.94,5.83,3.76c1.09,2.56-0.07,5.25-3.98,5C626.2,672.42,623.36,672.57,620.53,672.57z"/>
	<path class="st0" d="M476.39,270.82c-12.68-0.13-22.34-10.69-22.25-24.33c0.09-13.41,10.27-24.13,22.77-23.98
		c12.31,0.15,22.32,11.21,22.32,24.48C499.23,259.08,489.61,271.22,476.39,270.82z M476.98,231.51c-9.46-0.94-16.49,7.04-16.64,15.3
		c-0.15,8.11,7.53,15.88,16.1,15.55c10.48-0.4,15.86-6.45,16.4-15.81C493.32,238.26,485.69,231.54,476.98,231.51z"/>
	<path class="st0" d="M447.11,315.81c-11.91,0.52-21.8-10.5-21.78-21.83c0.02-11.65,10.47-22.1,21.97-22
		c11.61,0.09,22.19,10.56,21.82,22.2C468.77,305.21,460.34,316.06,447.11,315.81z M432.04,293.75c-0.07,8.39,6.75,13.52,15.4,13.46
		c7.88-0.06,14.63-4.3,15.11-12.86c0.4-7.24-6.48-13.28-14.97-13.47C439.15,280.69,432.14,286.5,432.04,293.75z"/>
	<path class="st0" d="M529.36,288.14c0.01,12.32-9.43,22.97-20.56,23.2c-11.06,0.23-21.24-10.84-21.31-23.15
		c-0.06-12.4,9.86-23.22,21.28-23.19C519.88,265.02,529.36,275.68,529.36,288.14z M494.22,287.89c-0.06,8.05,6.52,14.75,14.44,14.68
		c7.6-0.06,14.49-6.81,14.56-14.28c0.07-7.71-6.91-14.68-14.65-14.64C500.71,273.71,494.27,280.1,494.22,287.89z"/>
	<path class="st0" d="M709.19,374.42c10.38-1.88,14.55,1.53,15.08,11.81c0.38,7.39,2.27,14.83-1.1,22.11
		c-0.31,0.66,1.54,2.32,2.37,3.52c1.15,1.64,3.08,3.2,3.28,4.95c0.45,3.95-2.61,5.75-6.22,3.64c-10.99-6.44-19.24-15.44-19.96-28.57
		c-0.59-10.7,0.81-21.52,1.54-32.27c0.16-2.36,0.7-5.79,4.14-4.69c1.43,0.46,2.78,3.76,2.72,5.72
		C710.9,365.18,709.88,369.71,709.19,374.42z M717.3,403.77c0-7.06,0.11-12.81-0.18-18.53c-0.03-0.56-3.32-1.77-3.74-1.34
		c-1.31,1.32-2.84,3.36-2.72,5C711.03,393.99,712.08,399.03,717.3,403.77z"/>
	<path class="st0" d="M436.23,457.19c0.11,7.13-3.25,12.43-9.1,14.64c-6.14,2.32-10.64,0.95-15.69-4.77
		c-6.99-7.92-7.73-17.15-2-24.73c4.23-5.6,13.86-6.71,18.94-1.92C433.23,444.97,436.61,450.39,436.23,457.19z M412.87,453.17
		c0.09,5.13,5.29,10.56,10.29,10.21c3.44-0.24,5.93-2.25,5.98-6.06c0.07-5.59-4.7-10.71-9.69-10.62
		C415.27,446.79,412.8,449.21,412.87,453.17z"/>
</g>
</svg>
